<svg xmlns="http://www.w3.org/2000/svg" xmlns:xlink="http://www.w3.org/1999/xlink" width="357" height="65" viewBox="0 0 357 65">
  <defs>
    <style>
      .cls-1 {
        fill: #fff;
        fill-rule: evenodd;
        filter: url(#filter);
      }
    </style>
    <filter id="filter" x="0.406" y="11.219" width="355.75" height="53.719" filterUnits="userSpaceOnUse">
      <feFlood result="flood"/>
      <feComposite result="composite" operator="in" in2="SourceGraphic"/>
      <feBlend result="blend" in2="SourceGraphic"/>
    </filter>
  </defs>
  <path id="I_._AM_._ARLA" data-name="I . AM . ARLA" class="cls-1" d="M0.409,53.471v0.6h13.14v-0.6h-0.78a3.736,3.736,0,0,1-2.7-1.11,3.59,3.59,0,0,1-1.14-2.67v-33.3a3.751,3.751,0,0,1,1.17-2.64,3.69,3.69,0,0,1,2.67-1.08h0.78v-0.6H0.409v0.6h0.78a3.693,3.693,0,0,1,2.67,1.08,3.759,3.759,0,0,1,1.17,2.64v33.3a3.863,3.863,0,0,1-1.17,2.67,3.639,3.639,0,0,1-2.67,1.11H0.409Zm39.78-15.86a2.664,2.664,0,1,0-.78,1.92A2.614,2.614,0,0,0,40.189,37.611Zm57.6,14.9a6.479,6.479,0,0,1-2.28-2.82l-16.08-38.46h-0.54q0,1.32-2.22,6.18l-13.56,32.28a6.883,6.883,0,0,1-2.34,2.82,5.244,5.244,0,0,1-2.94.96h-0.54v0.6h12.06v-0.6h-0.54a2.246,2.246,0,0,1-1.89-.81,2.515,2.515,0,0,1-.63-1.5,4.438,4.438,0,0,1,.24-1.41l4.02-10.26h16.2l3.84,10.2a4.547,4.547,0,0,1,.24,1.44,2.543,2.543,0,0,1-.63,1.53,2.246,2.246,0,0,1-1.89.81h-0.54v0.6h13.5v-0.6h-0.48A5.328,5.328,0,0,1,97.788,52.511Zm-18.96-34.08,7.2,19.26H71.268Zm73.739,34.62a3.988,3.988,0,0,1-2.4-3.36l-4.62-38.46h-0.54l-16.38,36.18-16.74-36.18h-0.6l-4.5,38.46a4.18,4.18,0,0,1-1.47,2.76,4.413,4.413,0,0,1-2.91,1.02h-0.96v0.6h11.64v-0.54h-0.96a2.412,2.412,0,0,1-2.28-2.58l2.58-29.34,15.36,33.3h0.6a23.614,23.614,0,0,1,2.04-6.12l12.6-28.02,2.7,30.18a2.173,2.173,0,0,1-.6,1.77,2.246,2.246,0,0,1-1.74.81h-0.9v0.54h13.02v-0.6h-0.96a4.62,4.62,0,0,1-1.98-.42h0Zm26.94-15.44a2.664,2.664,0,1,0-.78,1.92A2.615,2.615,0,0,0,179.507,37.611Zm57.6,14.9a6.481,6.481,0,0,1-2.28-2.82l-16.08-38.46h-0.54q0,1.32-2.22,6.18l-13.56,32.28a6.883,6.883,0,0,1-2.34,2.82,5.243,5.243,0,0,1-2.94.96h-0.54v0.6h12.06v-0.6h-0.54a2.246,2.246,0,0,1-1.89-.81,2.515,2.515,0,0,1-.63-1.5,4.446,4.446,0,0,1,.24-1.41l4.02-10.26h16.2l3.84,10.2a4.53,4.53,0,0,1,.24,1.44,2.543,2.543,0,0,1-.63,1.53,2.246,2.246,0,0,1-1.89.81h-0.54v0.6h13.5v-0.6h-0.48A5.33,5.33,0,0,1,237.106,52.511Zm-18.96-34.08,7.2,19.26h-14.76Zm78.6,45.24a8.789,8.789,0,0,1-1.44.12,14.63,14.63,0,0,1-7.02-1.92,22.629,22.629,0,0,1-3.99-2.79q-2.25-1.89-5.19-4.83t-13.32-14.4q-2.582-2.88-4.62-5.04h0.06a9.058,9.058,0,0,0,7.2-3.51,12.661,12.661,0,0,0,2.94-8.4,10.2,10.2,0,0,0-3.21-7.86,12.008,12.008,0,0,0-8.49-2.97h-16.2v0.6h0.78a3.645,3.645,0,0,1,2.67,1.11,3.873,3.873,0,0,1,1.17,2.67v33.3a3.9,3.9,0,0,1-3.84,3.72h-0.78v0.6h13.14l-0.06-.6h-0.72a3.842,3.842,0,0,1-3.84-3.78V13.931h7.44a6.582,6.582,0,0,1,5.49,2.7,11.555,11.555,0,0,1,1.95,7.02q0,5.28-3.54,7.56a7.141,7.141,0,0,1-2.22,1.05,15.9,15.9,0,0,1-2.49.54,45.227,45.227,0,0,1-4.65.15v0.6q1.138,0.121,3.24,2.46t8.52,9.45q6.418,7.11,8.67,9.69a39.364,39.364,0,0,0,5.01,4.8,20.59,20.59,0,0,0,3,2.22,22.822,22.822,0,0,0,3.21,1.59,15,15,0,0,0,3.21.93,22.11,22.11,0,0,0,3.45.24,17.921,17.921,0,0,0,4.47-.66v-0.6Zm-14.161-10.2v0.6h24.9l3.48-9.72h-0.6a14.659,14.659,0,0,1-3.9,5.88q-2.34,1.98-6.78,1.98h-8.58V16.451a3.818,3.818,0,0,1,3.84-3.78h0.78v-0.6h-13.14v0.6h0.78a3.641,3.641,0,0,1,2.67,1.11,3.864,3.864,0,0,1,1.17,2.67v33.24a3.861,3.861,0,0,1-1.17,2.67,3.638,3.638,0,0,1-2.67,1.11h-0.78Zm70.08-.96a6.481,6.481,0,0,1-2.28-2.82l-16.08-38.46h-0.54q0,1.32-2.22,6.18l-13.56,32.28a6.883,6.883,0,0,1-2.34,2.82,5.245,5.245,0,0,1-2.94.96h-0.54v0.6h12.06v-0.6h-0.54a2.246,2.246,0,0,1-1.89-.81,2.515,2.515,0,0,1-.63-1.5,4.446,4.446,0,0,1,.24-1.41l4.02-10.26h16.2l3.84,10.2a4.558,4.558,0,0,1,.24,1.44,2.543,2.543,0,0,1-.63,1.53,2.246,2.246,0,0,1-1.89.81h-0.54v0.6h13.5v-0.6h-0.48A5.327,5.327,0,0,1,352.665,52.511Zm-18.96-34.08,7.2,19.26h-14.76Z"/>
</svg>
